<svg width="121" height="55" viewBox="0 0 121 55" fill="none" xmlns="http://www.w3.org/2000/svg">
<g filter="url(#filter0_d_2001_9)">
<rect x="10" y="8" width="36" height="35" rx="8" fill="black"/>
<path d="M24.5273 33.425C25.1341 33.425 25.6761 33.3227 26.1534 33.1182C26.6307 32.9136 27.033 32.6273 27.3602 32.2591C27.6943 31.8909 27.9466 31.4511 28.117 30.9398C28.2943 30.4284 28.383 29.8659 28.383 29.2523V20.3443H30.3568V29.2523C30.3568 30.0977 30.2205 30.8818 29.9477 31.6045C29.6818 32.3273 29.2966 32.9545 28.792 33.4864C28.2943 34.0114 27.6841 34.4239 26.9614 34.7239C26.2386 35.0239 25.4273 35.1739 24.5273 35.1739C23.6273 35.1739 22.8159 35.0239 22.0932 34.7239C21.3705 34.4239 20.7568 34.0114 20.2523 33.4864C19.7477 32.9545 19.3591 32.3273 19.0864 31.6045C18.8205 30.8818 18.6875 30.0977 18.6875 29.2523V20.3443H20.6614V29.242C20.6614 29.8557 20.7466 30.4182 20.917 30.9295C21.0943 31.4409 21.3466 31.8807 21.6739 32.2489C22.008 32.617 22.4136 32.9068 22.8909 33.1182C23.375 33.3227 23.9205 33.425 24.5273 33.425ZM35.897 35H33.9129V20.3443H35.897V35Z" fill="white"/>
</g>
<path d="M62.9761 31.717C63.1057 31.717 63.2182 31.7682 63.3136 31.8705L64.2648 32.9034C63.6648 33.6261 62.9284 34.1852 62.0557 34.5807C61.183 34.9693 60.1398 35.1636 58.9261 35.1636C57.8489 35.1636 56.8739 34.9795 56.0011 34.6114C55.1352 34.2364 54.3955 33.7182 53.7818 33.0568C53.1682 32.3886 52.6943 31.5943 52.3602 30.6739C52.033 29.7534 51.8693 28.7409 51.8693 27.6364C51.8693 26.5318 52.0432 25.5193 52.3909 24.5989C52.7455 23.6716 53.2398 22.8773 53.8739 22.2159C54.5148 21.5477 55.2784 21.0295 56.1648 20.6614C57.058 20.2932 58.0398 20.1091 59.1102 20.1091C60.1739 20.1091 61.1114 20.283 61.9227 20.6307C62.7409 20.9716 63.45 21.4284 64.05 22.0011L63.2625 23.1159C63.208 23.1909 63.1432 23.2557 63.0682 23.3102C62.9932 23.3648 62.8909 23.392 62.7614 23.392C62.625 23.392 62.4682 23.3307 62.2909 23.208C62.1205 23.0784 61.8989 22.9386 61.6261 22.7886C61.3602 22.6318 61.0227 22.492 60.6136 22.3693C60.2114 22.2398 59.7068 22.175 59.1 22.175C58.3977 22.175 57.7534 22.2977 57.167 22.5432C56.5807 22.7886 56.0761 23.1466 55.6534 23.617C55.2307 24.0875 54.9 24.6602 54.6614 25.3352C54.4295 26.0102 54.3136 26.7773 54.3136 27.6364C54.3136 28.5023 54.4364 29.2761 54.6818 29.958C54.9273 30.633 55.2648 31.2057 55.6943 31.6761C56.1239 32.1398 56.6284 32.4943 57.208 32.7398C57.7875 32.9852 58.4114 33.108 59.0795 33.108C59.4886 33.108 59.8534 33.0875 60.1739 33.0466C60.5011 32.9989 60.8011 32.9273 61.0739 32.8318C61.3466 32.7295 61.6023 32.6034 61.8409 32.4534C62.0864 32.3034 62.3284 32.1193 62.567 31.9011C62.7034 31.7784 62.8398 31.717 62.9761 31.717ZM71.4967 30.4386C70.7126 30.4659 70.0513 30.5307 69.5126 30.633C68.974 30.7284 68.5376 30.8545 68.2036 31.0114C67.8695 31.1614 67.6274 31.342 67.4774 31.5534C67.3342 31.7648 67.2626 31.9966 67.2626 32.2489C67.2626 32.4943 67.3001 32.7057 67.3751 32.883C67.457 33.0534 67.5661 33.1966 67.7024 33.3125C67.8456 33.4216 68.0092 33.5034 68.1933 33.558C68.3842 33.6057 68.5922 33.6295 68.8172 33.6295C69.3899 33.6295 69.8808 33.5239 70.2899 33.3125C70.7058 33.0943 71.1081 32.7807 71.4967 32.3716V30.4386ZM65.6672 26.0205C66.8467 24.9227 68.2513 24.3739 69.8808 24.3739C70.4808 24.3739 71.0126 24.4727 71.4763 24.6705C71.9467 24.8614 72.3388 25.1341 72.6524 25.4886C72.9729 25.8432 73.2149 26.2659 73.3786 26.7568C73.549 27.2409 73.6342 27.7795 73.6342 28.3727V35H72.6524C72.4411 35 72.2808 34.9693 72.1717 34.908C72.0626 34.8398 71.9706 34.7068 71.8956 34.5091L71.6808 33.6602C71.4149 33.8989 71.1524 34.1136 70.8933 34.3045C70.6342 34.4886 70.3649 34.6455 70.0854 34.775C69.8126 34.9045 69.5161 35 69.1956 35.0614C68.882 35.1295 68.5342 35.1636 68.1524 35.1636C67.7297 35.1636 67.3342 35.1057 66.9661 34.9898C66.6047 34.8739 66.2911 34.7 66.0251 34.4682C65.7592 34.2295 65.5479 33.9364 65.3911 33.5886C65.2411 33.2409 65.1661 32.8318 65.1661 32.3614C65.1661 31.9591 65.2717 31.567 65.4831 31.1852C65.7013 30.8034 66.0558 30.4625 66.5467 30.1625C67.0445 29.8557 67.6956 29.6034 68.5001 29.4057C69.3115 29.208 70.3104 29.0955 71.4967 29.0682V28.3727C71.4967 27.6227 71.3365 27.0636 71.0161 26.6955C70.6956 26.3273 70.2251 26.1432 69.6047 26.1432C69.182 26.1432 68.8274 26.1977 68.5411 26.3068C68.2547 26.4091 68.0058 26.5216 67.7945 26.6443C67.5831 26.767 67.3956 26.883 67.232 26.992C67.0683 27.0943 66.8945 27.1455 66.7104 27.1455C66.5604 27.1455 66.4308 27.108 66.3217 27.033C66.2195 26.9511 66.1342 26.8523 66.0661 26.7364L65.6672 26.0205ZM76.2101 35V24.5682H77.5396C77.8396 24.5682 78.0305 24.708 78.1123 24.9875L78.2555 25.8977C78.4464 25.6795 78.6442 25.4818 78.8487 25.3045C79.0532 25.1205 79.2714 24.9636 79.5032 24.8341C79.7419 24.6977 79.9942 24.592 80.2601 24.517C80.5328 24.442 80.826 24.4045 81.1396 24.4045C81.4737 24.4045 81.7805 24.4523 82.0601 24.5477C82.3396 24.6432 82.5851 24.7795 82.7964 24.9568C83.0146 25.1341 83.2021 25.3489 83.3589 25.6011C83.5157 25.8534 83.6453 26.1364 83.7476 26.45C83.9044 26.0886 84.1021 25.7784 84.3407 25.5193C84.5794 25.2602 84.8453 25.0489 85.1385 24.8852C85.4317 24.7216 85.7419 24.6023 86.0692 24.5273C86.4032 24.4455 86.7407 24.4045 87.0817 24.4045C87.6407 24.4045 88.1385 24.4932 88.5748 24.6705C89.018 24.8477 89.3896 25.1068 89.6896 25.4477C89.9964 25.7818 90.2283 26.1943 90.3851 26.6852C90.5419 27.1761 90.6203 27.7352 90.6203 28.3625V35H88.4214V28.3625C88.4214 27.6261 88.2612 27.0739 87.9408 26.7057C87.6271 26.3307 87.1601 26.1432 86.5396 26.1432C86.2601 26.1432 85.9976 26.1909 85.7521 26.2864C85.5067 26.3818 85.2919 26.5216 85.1078 26.7057C84.9237 26.8898 84.7771 27.1216 84.668 27.4011C84.5657 27.6739 84.5146 27.9943 84.5146 28.3625V35H82.3157V28.3625C82.3157 27.5989 82.1623 27.0398 81.8555 26.6852C81.5487 26.3239 81.0987 26.1432 80.5055 26.1432C80.0964 26.1432 79.718 26.2489 79.3703 26.4602C79.0226 26.6648 78.7021 26.9477 78.4089 27.3091V35H76.2101ZM100.031 28.608C100.031 28.2398 99.9764 27.8989 99.8673 27.5852C99.7651 27.2648 99.6117 26.9886 99.4071 26.7568C99.2026 26.5182 98.9469 26.3341 98.6401 26.2045C98.3401 26.0682 97.9923 26 97.5969 26C96.7992 26 96.1719 26.2284 95.7151 26.6852C95.2583 27.142 94.9685 27.783 94.8458 28.608H100.031ZM94.7844 29.958C94.8117 30.5511 94.9037 31.0659 95.0605 31.5023C95.2173 31.9318 95.4253 32.2898 95.6844 32.5761C95.9503 32.8625 96.2639 33.0773 96.6253 33.2205C96.9935 33.3568 97.4026 33.425 97.8526 33.425C98.2821 33.425 98.6537 33.3773 98.9673 33.2818C99.281 33.1795 99.5537 33.0705 99.7855 32.9545C100.017 32.8318 100.215 32.7227 100.379 32.6273C100.542 32.525 100.692 32.4739 100.829 32.4739C101.006 32.4739 101.142 32.542 101.238 32.6784L101.862 33.4864C101.603 33.7932 101.309 34.0523 100.982 34.2636C100.655 34.475 100.307 34.6489 99.9389 34.7852C99.5708 34.9148 99.1923 35.0068 98.8037 35.0614C98.4151 35.1227 98.0367 35.1534 97.6685 35.1534C96.9458 35.1534 96.2742 35.0341 95.6537 34.7955C95.0401 34.55 94.5048 34.192 94.048 33.7216C93.598 33.2511 93.2435 32.6682 92.9844 31.9727C92.7321 31.2773 92.606 30.4761 92.606 29.5693C92.606 28.8466 92.7185 28.1716 92.9435 27.5443C93.1753 26.917 93.5026 26.3716 93.9253 25.908C94.3548 25.4443 94.873 25.0795 95.4798 24.8136C96.0935 24.5409 96.7855 24.4045 97.556 24.4045C98.1969 24.4045 98.7901 24.5102 99.3355 24.7216C99.881 24.9261 100.351 25.2295 100.747 25.6318C101.142 26.0341 101.449 26.5284 101.667 27.1148C101.892 27.6943 102.005 28.3557 102.005 29.0989C102.005 29.4398 101.967 29.6682 101.892 29.7841C101.817 29.9 101.681 29.958 101.483 29.958H94.7844ZM106.132 26.5011C106.459 25.8398 106.854 25.3216 107.318 24.9466C107.782 24.5648 108.337 24.3739 108.985 24.3739C109.21 24.3739 109.421 24.4011 109.619 24.4557C109.817 24.5034 109.994 24.5784 110.151 24.6807L109.997 26.3375C109.97 26.4534 109.926 26.5352 109.865 26.583C109.81 26.6239 109.735 26.6443 109.64 26.6443C109.537 26.6443 109.391 26.6273 109.2 26.5932C109.009 26.5523 108.808 26.5318 108.596 26.5318C108.29 26.5318 108.017 26.5761 107.778 26.6648C107.546 26.7534 107.335 26.883 107.144 27.0534C106.96 27.2239 106.796 27.4318 106.653 27.6773C106.51 27.9227 106.377 28.2023 106.254 28.5159V35H104.055V24.5682H105.334C105.566 24.5682 105.726 24.6125 105.815 24.7011C105.903 24.783 105.965 24.9295 105.999 25.1409L106.132 26.5011ZM117.02 30.4386C116.236 30.4659 115.575 30.5307 115.036 30.633C114.497 30.7284 114.061 30.8545 113.727 31.0114C113.393 31.1614 113.151 31.342 113.001 31.5534C112.858 31.7648 112.786 31.9966 112.786 32.2489C112.786 32.4943 112.823 32.7057 112.898 32.883C112.98 33.0534 113.089 33.1966 113.226 33.3125C113.369 33.4216 113.533 33.5034 113.717 33.558C113.908 33.6057 114.116 33.6295 114.341 33.6295C114.913 33.6295 115.404 33.5239 115.813 33.3125C116.229 33.0943 116.631 32.7807 117.02 32.3716V30.4386ZM111.191 26.0205C112.37 24.9227 113.775 24.3739 115.404 24.3739C116.004 24.3739 116.536 24.4727 117 24.6705C117.47 24.8614 117.862 25.1341 118.176 25.4886C118.496 25.8432 118.738 26.2659 118.902 26.7568C119.072 27.2409 119.158 27.7795 119.158 28.3727V35H118.176C117.964 35 117.804 34.9693 117.695 34.908C117.586 34.8398 117.494 34.7068 117.419 34.5091L117.204 33.6602C116.938 33.8989 116.676 34.1136 116.417 34.3045C116.158 34.4886 115.888 34.6455 115.609 34.775C115.336 34.9045 115.039 35 114.719 35.0614C114.405 35.1295 114.058 35.1636 113.676 35.1636C113.253 35.1636 112.858 35.1057 112.489 34.9898C112.128 34.8739 111.814 34.7 111.548 34.4682C111.283 34.2295 111.071 33.9364 110.914 33.5886C110.764 33.2409 110.689 32.8318 110.689 32.3614C110.689 31.9591 110.795 31.567 111.006 31.1852C111.225 30.8034 111.579 30.4625 112.07 30.1625C112.568 29.8557 113.219 29.6034 114.023 29.4057C114.835 29.208 115.834 29.0955 117.02 29.0682V28.3727C117.02 27.6227 116.86 27.0636 116.539 26.6955C116.219 26.3273 115.748 26.1432 115.128 26.1432C114.705 26.1432 114.351 26.1977 114.064 26.3068C113.778 26.4091 113.529 26.5216 113.318 26.6443C113.106 26.767 112.919 26.883 112.755 26.992C112.592 27.0943 112.418 27.1455 112.234 27.1455C112.084 27.1455 111.954 27.108 111.845 27.033C111.743 26.9511 111.658 26.8523 111.589 26.7364L111.191 26.0205Z" fill="black"/>
<defs>
<filter id="filter0_d_2001_9" x="0" y="0" width="56" height="55" filterUnits="userSpaceOnUse" color-interpolation-filters="sRGB">
<feFlood flood-opacity="0" result="BackgroundImageFix"/>
<feColorMatrix in="SourceAlpha" type="matrix" values="0 0 0 0 0 0 0 0 0 0 0 0 0 0 0 0 0 0 127 0" result="hardAlpha"/>
<feOffset dy="2"/>
<feGaussianBlur stdDeviation="5"/>
<feComposite in2="hardAlpha" operator="out"/>
<feColorMatrix type="matrix" values="0 0 0 0 0 0 0 0 0 0 0 0 0 0 0 0 0 0 0.25 0"/>
<feBlend mode="normal" in2="BackgroundImageFix" result="effect1_dropShadow_2001_9"/>
<feBlend mode="normal" in="SourceGraphic" in2="effect1_dropShadow_2001_9" result="shape"/>
</filter>
</defs>
</svg>
