<svg width="114" height="35" viewBox="0 0 114 35" fill="none" xmlns="http://www.w3.org/2000/svg">
<g filter="url(#filter0_i_2001_10)">
<rect width="36" height="35" rx="8" fill="white"/>
<path d="M14.5273 25.425C15.1341 25.425 15.6761 25.3227 16.1534 25.1182C16.6307 24.9136 17.033 24.6273 17.3602 24.2591C17.6943 23.8909 17.9466 23.4511 18.117 22.9398C18.2943 22.4284 18.383 21.8659 18.383 21.2523V12.3443H20.3568V21.2523C20.3568 22.0977 20.2205 22.8818 19.9477 23.6045C19.6818 24.3273 19.2966 24.9545 18.792 25.4864C18.2943 26.0114 17.6841 26.4239 16.9614 26.7239C16.2386 27.0239 15.4273 27.1739 14.5273 27.1739C13.6273 27.1739 12.8159 27.0239 12.0932 26.7239C11.3705 26.4239 10.7568 26.0114 10.2523 25.4864C9.74773 24.9545 9.35909 24.3273 9.08636 23.6045C8.82045 22.8818 8.6875 22.0977 8.6875 21.2523V12.3443H10.6614V21.242C10.6614 21.8557 10.7466 22.4182 10.917 22.9295C11.0943 23.4409 11.3466 23.8807 11.6739 24.2489C12.008 24.617 12.4136 24.9068 12.8909 25.1182C13.375 25.3227 13.9205 25.425 14.5273 25.425ZM25.897 27H23.9129V12.3443H25.897V27Z" fill="black"/>
</g>
<g filter="url(#filter1_d_2001_10)">
<path d="M52.9761 23.717C53.1057 23.717 53.2182 23.7682 53.3136 23.8705L54.2648 24.9034C53.6648 25.6261 52.9284 26.1852 52.0557 26.5807C51.183 26.9693 50.1398 27.1636 48.9261 27.1636C47.8489 27.1636 46.8739 26.9795 46.0011 26.6114C45.1352 26.2364 44.3955 25.7182 43.7818 25.0568C43.1682 24.3886 42.6943 23.5943 42.3602 22.6739C42.033 21.7534 41.8693 20.7409 41.8693 19.6364C41.8693 18.5318 42.0432 17.5193 42.3909 16.5989C42.7455 15.6716 43.2398 14.8773 43.8739 14.2159C44.5148 13.5477 45.2784 13.0295 46.1648 12.6614C47.058 12.2932 48.0398 12.1091 49.1102 12.1091C50.1739 12.1091 51.1114 12.283 51.9227 12.6307C52.7409 12.9716 53.45 13.4284 54.05 14.0011L53.2625 15.1159C53.208 15.1909 53.1432 15.2557 53.0682 15.3102C52.9932 15.3648 52.8909 15.392 52.7614 15.392C52.625 15.392 52.4682 15.3307 52.2909 15.208C52.1205 15.0784 51.8989 14.9386 51.6261 14.7886C51.3602 14.6318 51.0227 14.492 50.6136 14.3693C50.2114 14.2398 49.7068 14.175 49.1 14.175C48.3977 14.175 47.7534 14.2977 47.167 14.5432C46.5807 14.7886 46.0761 15.1466 45.6534 15.617C45.2307 16.0875 44.9 16.6602 44.6614 17.3352C44.4295 18.0102 44.3136 18.7773 44.3136 19.6364C44.3136 20.5023 44.4364 21.2761 44.6818 21.958C44.9273 22.633 45.2648 23.2057 45.6943 23.6761C46.1239 24.1398 46.6284 24.4943 47.208 24.7398C47.7875 24.9852 48.4114 25.108 49.0795 25.108C49.4886 25.108 49.8534 25.0875 50.1739 25.0466C50.5011 24.9989 50.8011 24.9273 51.0739 24.8318C51.3466 24.7295 51.6023 24.6034 51.8409 24.4534C52.0864 24.3034 52.3284 24.1193 52.567 23.9011C52.7034 23.7784 52.8398 23.717 52.9761 23.717ZM61.4967 22.4386C60.7126 22.4659 60.0513 22.5307 59.5126 22.633C58.974 22.7284 58.5376 22.8545 58.2036 23.0114C57.8695 23.1614 57.6274 23.342 57.4774 23.5534C57.3342 23.7648 57.2626 23.9966 57.2626 24.2489C57.2626 24.4943 57.3001 24.7057 57.3751 24.883C57.457 25.0534 57.5661 25.1966 57.7024 25.3125C57.8456 25.4216 58.0092 25.5034 58.1933 25.558C58.3842 25.6057 58.5922 25.6295 58.8172 25.6295C59.3899 25.6295 59.8808 25.5239 60.2899 25.3125C60.7058 25.0943 61.1081 24.7807 61.4967 24.3716V22.4386ZM55.6672 18.0205C56.8467 16.9227 58.2513 16.3739 59.8808 16.3739C60.4808 16.3739 61.0126 16.4727 61.4763 16.6705C61.9467 16.8614 62.3388 17.1341 62.6524 17.4886C62.9729 17.8432 63.2149 18.2659 63.3786 18.7568C63.549 19.2409 63.6342 19.7795 63.6342 20.3727V27H62.6524C62.4411 27 62.2808 26.9693 62.1717 26.908C62.0626 26.8398 61.9706 26.7068 61.8956 26.5091L61.6808 25.6602C61.4149 25.8989 61.1524 26.1136 60.8933 26.3045C60.6342 26.4886 60.3649 26.6455 60.0854 26.775C59.8126 26.9045 59.5161 27 59.1956 27.0614C58.882 27.1295 58.5342 27.1636 58.1524 27.1636C57.7297 27.1636 57.3342 27.1057 56.9661 26.9898C56.6047 26.8739 56.2911 26.7 56.0251 26.4682C55.7592 26.2295 55.5479 25.9364 55.3911 25.5886C55.2411 25.2409 55.1661 24.8318 55.1661 24.3614C55.1661 23.9591 55.2717 23.567 55.4831 23.1852C55.7013 22.8034 56.0558 22.4625 56.5467 22.1625C57.0445 21.8557 57.6956 21.6034 58.5001 21.4057C59.3115 21.208 60.3104 21.0955 61.4967 21.0682V20.3727C61.4967 19.6227 61.3365 19.0636 61.0161 18.6955C60.6956 18.3273 60.2251 18.1432 59.6047 18.1432C59.182 18.1432 58.8274 18.1977 58.5411 18.3068C58.2547 18.4091 58.0058 18.5216 57.7945 18.6443C57.5831 18.767 57.3956 18.883 57.232 18.992C57.0683 19.0943 56.8945 19.1455 56.7104 19.1455C56.5604 19.1455 56.4308 19.108 56.3217 19.033C56.2195 18.9511 56.1342 18.8523 56.0661 18.7364L55.6672 18.0205ZM66.2101 27V16.5682H67.5396C67.8396 16.5682 68.0305 16.708 68.1123 16.9875L68.2555 17.8977C68.4464 17.6795 68.6442 17.4818 68.8487 17.3045C69.0532 17.1205 69.2714 16.9636 69.5032 16.8341C69.7419 16.6977 69.9942 16.592 70.2601 16.517C70.5328 16.442 70.826 16.4045 71.1396 16.4045C71.4737 16.4045 71.7805 16.4523 72.0601 16.5477C72.3396 16.6432 72.5851 16.7795 72.7964 16.9568C73.0146 17.1341 73.2021 17.3489 73.3589 17.6011C73.5157 17.8534 73.6453 18.1364 73.7476 18.45C73.9044 18.0886 74.1021 17.7784 74.3407 17.5193C74.5794 17.2602 74.8453 17.0489 75.1385 16.8852C75.4317 16.7216 75.7419 16.6023 76.0692 16.5273C76.4032 16.4455 76.7407 16.4045 77.0817 16.4045C77.6407 16.4045 78.1385 16.4932 78.5748 16.6705C79.018 16.8477 79.3896 17.1068 79.6896 17.4477C79.9964 17.7818 80.2283 18.1943 80.3851 18.6852C80.5419 19.1761 80.6203 19.7352 80.6203 20.3625V27H78.4214V20.3625C78.4214 19.6261 78.2612 19.0739 77.9408 18.7057C77.6271 18.3307 77.1601 18.1432 76.5396 18.1432C76.2601 18.1432 75.9976 18.1909 75.7521 18.2864C75.5067 18.3818 75.2919 18.5216 75.1078 18.7057C74.9237 18.8898 74.7771 19.1216 74.668 19.4011C74.5657 19.6739 74.5146 19.9943 74.5146 20.3625V27H72.3157V20.3625C72.3157 19.5989 72.1623 19.0398 71.8555 18.6852C71.5487 18.3239 71.0987 18.1432 70.5055 18.1432C70.0964 18.1432 69.718 18.2489 69.3703 18.4602C69.0226 18.6648 68.7021 18.9477 68.4089 19.3091V27H66.2101ZM90.031 20.608C90.031 20.2398 89.9764 19.8989 89.8673 19.5852C89.7651 19.2648 89.6117 18.9886 89.4071 18.7568C89.2026 18.5182 88.9469 18.3341 88.6401 18.2045C88.3401 18.0682 87.9923 18 87.5969 18C86.7992 18 86.1719 18.2284 85.7151 18.6852C85.2583 19.142 84.9685 19.783 84.8458 20.608H90.031ZM84.7844 21.958C84.8117 22.5511 84.9037 23.0659 85.0605 23.5023C85.2173 23.9318 85.4253 24.2898 85.6844 24.5761C85.9503 24.8625 86.2639 25.0773 86.6253 25.2205C86.9935 25.3568 87.4026 25.425 87.8526 25.425C88.2821 25.425 88.6537 25.3773 88.9673 25.2818C89.281 25.1795 89.5537 25.0705 89.7855 24.9545C90.0173 24.8318 90.2151 24.7227 90.3787 24.6273C90.5423 24.525 90.6923 24.4739 90.8287 24.4739C91.006 24.4739 91.1423 24.542 91.2378 24.6784L91.8617 25.4864C91.6026 25.7932 91.3094 26.0523 90.9821 26.2636C90.6548 26.475 90.3071 26.6489 89.9389 26.7852C89.5708 26.9148 89.1923 27.0068 88.8037 27.0614C88.4151 27.1227 88.0367 27.1534 87.6685 27.1534C86.9458 27.1534 86.2742 27.0341 85.6537 26.7955C85.0401 26.55 84.5048 26.192 84.048 25.7216C83.598 25.2511 83.2435 24.6682 82.9844 23.9727C82.7321 23.2773 82.606 22.4761 82.606 21.5693C82.606 20.8466 82.7185 20.1716 82.9435 19.5443C83.1753 18.917 83.5026 18.3716 83.9253 17.908C84.3548 17.4443 84.873 17.0795 85.4798 16.8136C86.0935 16.5409 86.7855 16.4045 87.556 16.4045C88.1969 16.4045 88.7901 16.5102 89.3355 16.7216C89.881 16.9261 90.3514 17.2295 90.7469 17.6318C91.1423 18.0341 91.4492 18.5284 91.6673 19.1148C91.8923 19.6943 92.0048 20.3557 92.0048 21.0989C92.0048 21.4398 91.9673 21.6682 91.8923 21.7841C91.8173 21.9 91.681 21.958 91.4833 21.958H84.7844ZM96.1316 18.5011C96.4588 17.8398 96.8543 17.3216 97.3179 16.9466C97.7816 16.5648 98.3372 16.3739 98.985 16.3739C99.21 16.3739 99.4213 16.4011 99.6191 16.4557C99.8168 16.5034 99.9941 16.5784 100.151 16.6807L99.9975 18.3375C99.9702 18.4534 99.9259 18.5352 99.8645 18.583C99.81 18.6239 99.735 18.6443 99.6395 18.6443C99.5372 18.6443 99.3906 18.6273 99.1997 18.5932C99.0088 18.5523 98.8077 18.5318 98.5963 18.5318C98.2895 18.5318 98.0168 18.5761 97.7781 18.6648C97.5463 18.7534 97.335 18.883 97.1441 19.0534C96.96 19.2239 96.7963 19.4318 96.6531 19.6773C96.51 19.9227 96.377 20.2023 96.2543 20.5159V27H94.0554V16.5682H95.3338C95.5656 16.5682 95.7259 16.6125 95.8145 16.7011C95.9031 16.783 95.9645 16.9295 95.9986 17.1409L96.1316 18.5011ZM107.02 22.4386C106.236 22.4659 105.575 22.5307 105.036 22.633C104.497 22.7284 104.061 22.8545 103.727 23.0114C103.393 23.1614 103.151 23.342 103.001 23.5534C102.858 23.7648 102.786 23.9966 102.786 24.2489C102.786 24.4943 102.823 24.7057 102.898 24.883C102.98 25.0534 103.089 25.1966 103.226 25.3125C103.369 25.4216 103.533 25.5034 103.717 25.558C103.908 25.6057 104.116 25.6295 104.341 25.6295C104.913 25.6295 105.404 25.5239 105.813 25.3125C106.229 25.0943 106.631 24.7807 107.02 24.3716V22.4386ZM101.191 18.0205C102.37 16.9227 103.775 16.3739 105.404 16.3739C106.004 16.3739 106.536 16.4727 107 16.6705C107.47 16.8614 107.862 17.1341 108.176 17.4886C108.496 17.8432 108.738 18.2659 108.902 18.7568C109.072 19.2409 109.158 19.7795 109.158 20.3727V27H108.176C107.964 27 107.804 26.9693 107.695 26.908C107.586 26.8398 107.494 26.7068 107.419 26.5091L107.204 25.6602C106.938 25.8989 106.676 26.1136 106.417 26.3045C106.158 26.4886 105.888 26.6455 105.609 26.775C105.336 26.9045 105.039 27 104.719 27.0614C104.405 27.1295 104.058 27.1636 103.676 27.1636C103.253 27.1636 102.858 27.1057 102.489 26.9898C102.128 26.8739 101.814 26.7 101.548 26.4682C101.283 26.2295 101.071 25.9364 100.914 25.5886C100.764 25.2409 100.689 24.8318 100.689 24.3614C100.689 23.9591 100.795 23.567 101.006 23.1852C101.225 22.8034 101.579 22.4625 102.07 22.1625C102.568 21.8557 103.219 21.6034 104.023 21.4057C104.835 21.208 105.834 21.0955 107.02 21.0682V20.3727C107.02 19.6227 106.86 19.0636 106.539 18.6955C106.219 18.3273 105.748 18.1432 105.128 18.1432C104.705 18.1432 104.351 18.1977 104.064 18.3068C103.778 18.4091 103.529 18.5216 103.318 18.6443C103.106 18.767 102.919 18.883 102.755 18.992C102.592 19.0943 102.418 19.1455 102.234 19.1455C102.084 19.1455 101.954 19.108 101.845 19.033C101.743 18.9511 101.658 18.8523 101.589 18.7364L101.191 18.0205Z" fill="black"/>
</g>
<defs>
<filter id="filter0_i_2001_10" x="0" y="0" width="36" height="39" filterUnits="userSpaceOnUse" color-interpolation-filters="sRGB">
<feFlood flood-opacity="0" result="BackgroundImageFix"/>
<feBlend mode="normal" in="SourceGraphic" in2="BackgroundImageFix" result="shape"/>
<feColorMatrix in="SourceAlpha" type="matrix" values="0 0 0 0 0 0 0 0 0 0 0 0 0 0 0 0 0 0 127 0" result="hardAlpha"/>
<feOffset dy="4"/>
<feGaussianBlur stdDeviation="2"/>
<feComposite in2="hardAlpha" operator="arithmetic" k2="-1" k3="1"/>
<feColorMatrix type="matrix" values="0 0 0 0 0 0 0 0 0 0 0 0 0 0 0 0 0 0 0.25 0"/>
<feBlend mode="normal" in2="shape" result="effect1_innerShadow_2001_10"/>
</filter>
<filter id="filter1_d_2001_10" x="37.8693" y="10.1091" width="75.2883" height="23.0546" filterUnits="userSpaceOnUse" color-interpolation-filters="sRGB">
<feFlood flood-opacity="0" result="BackgroundImageFix"/>
<feColorMatrix in="SourceAlpha" type="matrix" values="0 0 0 0 0 0 0 0 0 0 0 0 0 0 0 0 0 0 127 0" result="hardAlpha"/>
<feOffset dy="2"/>
<feGaussianBlur stdDeviation="2"/>
<feComposite in2="hardAlpha" operator="out"/>
<feColorMatrix type="matrix" values="0 0 0 0 0 0 0 0 0 0 0 0 0 0 0 0 0 0 0.25 0"/>
<feBlend mode="normal" in2="BackgroundImageFix" result="effect1_dropShadow_2001_10"/>
<feBlend mode="normal" in="SourceGraphic" in2="effect1_dropShadow_2001_10" result="shape"/>
</filter>
</defs>
</svg>
