<svg width="56" height="55" viewBox="0 0 56 55" fill="none" xmlns="http://www.w3.org/2000/svg">
<g filter="url(#filter0_d_2006_2)">
<rect x="10" y="8" width="36" height="35" rx="8" fill="black"/>
<path d="M18.9067 28.9733C19.3022 28.9733 19.6556 28.9067 19.9667 28.7733C20.2778 28.64 20.54 28.4533 20.7533 28.2133C20.9711 27.9733 21.1356 27.6867 21.2467 27.3533C21.3622 27.02 21.42 26.6533 21.42 26.2533V20.4467H22.7067V26.2533C22.7067 26.8044 22.6178 27.3156 22.44 27.7867C22.2667 28.2578 22.0156 28.6667 21.6867 29.0133C21.3622 29.3556 20.9644 29.6244 20.4933 29.82C20.0222 30.0156 19.4933 30.1133 18.9067 30.1133C18.32 30.1133 17.7911 30.0156 17.32 29.82C16.8489 29.6244 16.4489 29.3556 16.12 29.0133C15.7911 28.6667 15.5378 28.2578 15.36 27.7867C15.1867 27.3156 15.1 26.8044 15.1 26.2533V20.4467H16.3867V26.2467C16.3867 26.6467 16.4422 27.0133 16.5533 27.3467C16.6689 27.68 16.8333 27.9667 17.0467 28.2067C17.2644 28.4467 17.5289 28.6356 17.84 28.7733C18.1556 28.9067 18.5111 28.9733 18.9067 28.9733ZM26.318 30H25.0247V20.4467H26.318V30ZM28.2817 29.2667C28.2817 29.1511 28.3017 29.0422 28.3417 28.94C28.3861 28.8378 28.4439 28.7489 28.515 28.6733C28.5906 28.5978 28.6794 28.5378 28.7817 28.4933C28.8839 28.4489 28.9928 28.4267 29.1083 28.4267C29.2239 28.4267 29.3328 28.4489 29.435 28.4933C29.5372 28.5378 29.6261 28.5978 29.7017 28.6733C29.7772 28.7489 29.8372 28.8378 29.8817 28.94C29.9261 29.0422 29.9483 29.1511 29.9483 29.2667C29.9483 29.3867 29.9261 29.4978 29.8817 29.6C29.8372 29.6978 29.7772 29.7844 29.7017 29.86C29.6261 29.9356 29.5372 29.9933 29.435 30.0333C29.3328 30.0778 29.2239 30.1 29.1083 30.1C28.9928 30.1 28.8839 30.0778 28.7817 30.0333C28.6794 29.9933 28.5906 29.9356 28.515 29.86C28.4439 29.7844 28.3861 29.6978 28.3417 29.6C28.3017 29.4978 28.2817 29.3867 28.2817 29.2667ZM38.3069 28.0267C38.378 28.0267 38.4402 28.0556 38.4935 28.1133L39.0069 28.6667C38.6158 29.12 38.1402 29.4733 37.5802 29.7267C37.0247 29.98 36.3513 30.1067 35.5602 30.1067C34.8758 30.1067 34.2535 29.9889 33.6935 29.7533C33.1335 29.5133 32.6558 29.18 32.2602 28.7533C31.8647 28.3222 31.558 27.8067 31.3402 27.2067C31.1224 26.6067 31.0135 25.9467 31.0135 25.2267C31.0135 24.5067 31.1269 23.8467 31.3535 23.2467C31.5802 22.6467 31.898 22.1311 32.3069 21.7C32.7202 21.2689 33.2135 20.9356 33.7869 20.7C34.3602 20.46 34.9935 20.34 35.6869 20.34C36.3669 20.34 36.9669 20.4489 37.4869 20.6667C38.0069 20.8844 38.4647 21.18 38.8602 21.5533L38.4335 22.1467C38.4069 22.1911 38.3713 22.2289 38.3269 22.26C38.2869 22.2867 38.2313 22.3 38.1602 22.3C38.0802 22.3 37.9824 22.2578 37.8669 22.1733C37.7513 22.0844 37.6002 21.9867 37.4135 21.88C37.2269 21.7733 36.9935 21.6778 36.7135 21.5933C36.4335 21.5044 36.0891 21.46 35.6802 21.46C35.1869 21.46 34.7358 21.5467 34.3269 21.72C33.918 21.8889 33.5647 22.1356 33.2669 22.46C32.9735 22.7844 32.7447 23.18 32.5802 23.6467C32.4158 24.1133 32.3335 24.64 32.3335 25.2267C32.3335 25.8222 32.418 26.3533 32.5869 26.82C32.7602 27.2867 32.9935 27.6822 33.2869 28.0067C33.5847 28.3267 33.9335 28.5711 34.3335 28.74C34.738 28.9089 35.1735 28.9933 35.6402 28.9933C35.9247 28.9933 36.1802 28.9778 36.4069 28.9467C36.638 28.9111 36.8491 28.8578 37.0402 28.7867C37.2358 28.7156 37.4158 28.6267 37.5802 28.52C37.7491 28.4089 37.9158 28.2778 38.0802 28.1267C38.1558 28.06 38.2313 28.0267 38.3069 28.0267Z" fill="white"/>
</g>
<defs>
<filter id="filter0_d_2006_2" x="0" y="0" width="56" height="55" filterUnits="userSpaceOnUse" color-interpolation-filters="sRGB">
<feFlood flood-opacity="0" result="BackgroundImageFix"/>
<feColorMatrix in="SourceAlpha" type="matrix" values="0 0 0 0 0 0 0 0 0 0 0 0 0 0 0 0 0 0 127 0" result="hardAlpha"/>
<feOffset dy="2"/>
<feGaussianBlur stdDeviation="5"/>
<feComposite in2="hardAlpha" operator="out"/>
<feColorMatrix type="matrix" values="0 0 0 0 0 0 0 0 0 0 0 0 0 0 0 0 0 0 0.25 0"/>
<feBlend mode="normal" in2="BackgroundImageFix" result="effect1_dropShadow_2006_2"/>
<feBlend mode="normal" in="SourceGraphic" in2="effect1_dropShadow_2006_2" result="shape"/>
</filter>
</defs>
</svg>
